<mxfile host="app.diagrams.net" modified="2024-05-08T19:49:50.110Z" agent="Mozilla/5.0 (Macintosh; Intel Mac OS X 10_15_7) AppleWebKit/605.1.15 (KHTML, like Gecko) Version/17.4.1 Safari/605.1.15" version="24.3.1" etag="NWkAEkqJiS58c3vDIjTe" type="github">
  <diagram name="Page-1" id="S7LfS4UsPjh8ScwuYE7H">
    <mxGraphModel>
      <root>
        <mxCell id="0" />
        <mxCell id="1" parent="0" />
      </root>
    </mxGraphModel>
  </diagram>
</mxfile>
